#!OML:ASF F:\VICON\USERDATA\INSTALL\rory3\rory3.ASF
:FULLY-SPECIFIED
:DEGREES
79
root -0.255566 18.458 -14.2528 7.95561 -3.47225 2.57143
lowerback 16.949 1.03785 -3.47319
upperback 2.65009 0.611993 -1.62274
thorax -6.67842 0.357948 0.102554
lowerneck -11.8349 -3.23908 -8.00557
upperneck 2.22449 -3.62346 8.08189
head 2.87044 -1.56437 3.54133
rclavicle 1.26228e-014 -8.15017e-015
rhumerus -32.3202 3.18333 -81.7334
rradius 33.4845
rwrist 13.2899
rhand -28.3145 -0.183789
rfingers 7.12502
rthumb -1.6897 -30.1568
lclavicle 1.26228e-014 -8.15017e-015
lhumerus -34.2317 0.760823 81.1199
lradius 35.5878
lwrist 3.38402
lhand -19.5515 25.2622
lfingers 7.12502
lthumb 6.77276 55.1338
rfemur -24.4597 17.0729 14.3213
rtibia 36.3048
rfoot -19.2956 -15.0138
rtoes -2.27902
lfemur -23.7252 -2.71307 -20.7831
ltibia 33.8912
lfoot -14.914 7.20496
ltoes -7.85816
80
root -0.250669 18.433 -14.2864 8.21382 -3.41392 2.52594
lowerback 17.3032 1.02537 -3.39203
upperback 2.8074 0.598271 -1.61269
thorax -6.70107 0.348243 0.0673178
lowerneck -12.0062 -3.25653 -7.95902
upperneck 1.69152 -3.61587 8.07909
head 2.73579 -1.55825 3.53356
rclavicle -1.98785e-015 3.37934e-015
rhumerus -32.276 2.97969 -81.5776
rradius 33.4895
rwrist 13.198
rhand -28.6054 -0.113407
rfingers 7.12502
rthumb -1.97065 -30.0841
lclavicle -1.98785e-015 3.37934e-015
lhumerus -34.1296 0.346831 81.0866
lradius 35.5746
lwrist 3.66109
lhand -19.5064 25.2687
lfingers 7.12502
lthumb 6.81628 55.139
rfemur -25.2303 16.9569 14.2364
rtibia 36.9167
rfoot -19.4484 -14.9352
rtoes -2.13401
lfemur -24.4947 -2.66128 -20.7057
ltibia 34.5009
lfoot -14.9943 7.0207
ltoes -7.53605
81
root -0.241045 18.4104 -14.3234 8.53598 -3.15155 2.62943
lowerback 17.7048 0.930468 -3.32558
upperback 2.91869 0.46977 -1.61886
thorax -6.79543 0.284544 0.0484882
lowerneck -12.1489 -3.28183 -8.01819
upperneck 1.15091 -3.60613 8.0966
head 2.59645 -1.5518 3.54991
rclavicle 3.27995e-015 -2.5842e-015
rhumerus -32.2425 2.94064 -81.3976
rradius 33.3878
rwrist 13.006
rhand -28.8648 0.00877515
rfingers 7.12502
rthumb -2.22111 -29.9594
lclavicle 3.27995e-015 -2.5842e-015
lhumerus -34.1025 0.154493 81.0154
lradius 35.6707
lwrist 3.59156
lhand -19.2267 25.2016
lfingers 7.12502
lthumb 7.08631 55.063
rfemur -26.0037 16.5452 13.9898
rtibia 37.5076
rfoot -19.652 -14.7513
rtoes -1.81824
lfemur -25.3617 -2.70873 -20.8128
ltibia 35.1606
lfoot -15.0808 6.75553
ltoes -7.59597
82
root -0.232664 18.384 -14.3638 8.86059 -2.95609 2.52292
lowerback 18.2353 0.844369 -3.12382
upperback 2.98776 0.376169 -1.57113
thorax -7.00525 0.236645 0.00156125
lowerneck -12.2741 -3.28474 -8.08395
upperneck 0.569548 -3.5697 8.21663
head 2.44281 -1.52874 3.60126
rclavicle -7.45443e-015 3.57812e-015
rhumerus -32.2372 3.03922 -81.2791
rradius 33.2605
rwrist 12.7356
rhand -28.9554 0.0313139
rfingers 7.12502
rthumb -2.30866 -29.9359
lclavicle -7.45443e-015 3.57812e-015
lhumerus -34.0367 -0.0120014 80.9167
lradius 35.6396
lwrist 3.53421
lhand -19.2333 25.4248
lfingers 7.12502
lthumb 7.07996 55.2864
rfemur -26.7945 16.3014 13.971
rtibia 38.082
rfoot -19.7741 -14.6459
rtoes -1.70273
lfemur -26.286 -2.54924 -20.7004
ltibia 35.866
lfoot -15.158 6.4394
ltoes -7.9982
83
root -0.223417 18.3566 -14.4044 9.20863 -2.81042 2.30503
lowerback 18.7051 0.776614 -2.80297
upperback 3.05935 0.336031 -1.51591
thorax -7.17968 0.211223 -0.116126
lowerneck -12.1997 -3.27383 -8.11546
upperneck -0.158979 -3.5265 8.34557
head 2.2131 -1.50674 3.6528
rclavicle -7.25564e-015 -1.64991e-014
rhumerus -32.2657 3.04256 -81.1566
rradius 33.1965
rwrist 12.443
rhand -28.9569 0.0930042
rfingers 7.12502
rthumb -2.31012 -29.8742
lclavicle -7.25564e-015 -1.64991e-014
lhumerus -33.8696 -0.215385 80.798
lradius 35.3346
lwrist 3.65848
lhand -19.6079 25.1774
lfingers 7.12502
lthumb 6.71836 55.0508
rfemur -27.627 16.0282 14.0779
rtibia 38.6491
rfoot -19.8447 -14.4925
rtoes -1.7095
lfemur -27.224 -2.36561 -20.4623
ltibia 36.5385
lfoot -15.2228 6.09681
ltoes -7.19966
84
root -0.214342 18.3318 -14.4417 9.63799 -2.68627 2.244
lowerback 19.0205 0.740249 -2.68222
upperback 3.14853 0.307126 -1.45444
thorax -7.25254 0.195074 -0.113983
lowerneck -12.2928 -3.2827 -8.14586
upperneck -0.732155 -3.49992 8.354
head 2.05463 -1.49303 3.66409
rclavicle 1.39149e-015 1.23246e-014
rhumerus -32.2846 3.0597 -80.9577
rradius 33.1473
rwrist 12.2856
rhand -28.9518 -0.245929
rfingers 7.12502
rthumb -2.30519 -30.2132
lclavicle 1.39149e-015 1.23246e-014
lhumerus -33.817 -0.423645 80.7635
lradius 35.2122
lwrist 3.6322
lhand -20.0273 24.7869
lfingers 7.12502
lthumb 6.3135 54.6728
rfemur -28.5539 15.7319 13.9733
rtibia 39.1999
rfoot -19.9442 -14.3405
rtoes -1.62468
lfemur -28.205 -2.2155 -20.4004
ltibia 37.1691
lfoot -15.2714 5.76511
ltoes -6.06822
85
root -0.204257 18.3093 -14.4736 10.0412 -2.56735 2.37465
lowerback 19.3462 0.697131 -2.76914
upperback 3.24844 0.224818 -1.43115
thorax -7.31846 0.15778 -0.0211829
lowerneck -12.6439 -3.29599 -8.08208
upperneck -1.12158 -3.47881 8.23361
head 1.98676 -1.47993 3.61711
rclavicle -1.00386e-014 2.0276e-014
rhumerus -32.3463 3.10271 -80.7542
rradius 32.995
rwrist 12.4538
rhand -29.5043 -0.173729
rfingers 7.12502
rthumb -2.83874 -30.1346
lclavicle -1.00386e-014 2.0276e-014
lhumerus -33.8 -0.41625 80.6793
lradius 35.1136
lwrist 3.457
lhand -19.8353 25.1133
lfingers 7.12502
lthumb 6.49886 54.9936
rfemur -29.3994 15.3789 13.6584
rtibia 39.7316
rfoot -20.1246 -14.0204
rtoes -1.11236
lfemur -29.1 -2.12642 -20.5631
ltibia 37.7403
lfoot -15.3682 5.47942
ltoes -5.64432
86
root -0.195273 18.2866 -14.5057 10.3822 -2.45328 2.37205
lowerback 19.8225 0.674318 -2.71853
upperback 3.29545 0.19058 -1.39546
thorax -7.52276 0.141951 -0.00662856
lowerneck -12.7611 -3.30786 -8.0664
upperneck -1.6158 -3.46553 8.2407
head 1.85592 -1.47203 3.61946
rclavicle -5.96354e-015 4.37326e-015
rhumerus -32.5651 3.11687 -80.5665
rradius 32.7717
rwrist 12.6783
rhand -30.3417 0.574761
rfingers 7.12502
rthumb -3.64743 -29.3738
lclavicle -5.96354e-015 4.37326e-015
lhumerus -33.8178 -0.516559 80.5592
lradius 34.8355
lwrist 3.41654
lhand -19.5759 25.5104
lfingers 7.12502
lthumb 6.74928 55.3828
rfemur -30.1523 15.1105 13.5108
rtibia 40.2552
rfoot -20.3534 -13.7373
rtoes -0.554155
lfemur -29.8996 -2.10242 -20.5624
ltibia 38.269
lfoot -15.5183 5.32833
ltoes -6.1921
87
root -0.185849 18.2631 -14.538 10.7609 -2.41967 2.25434
lowerback 20.254 0.662608 -2.54387
upperback 3.31396 0.199049 -1.35749
thorax -7.73406 0.143527 -0.0708606
lowerneck -12.7003 -3.28858 -8.06345
upperneck -2.19157 -3.41867 8.28339
head 1.6718 -1.45035 3.63906
rclavicle -9.64106e-015 7.95139e-016
rhumerus -32.7078 3.1741 -80.4134
rradius 32.4849
rwrist 12.6358
rhand -30.6068 0.763802
rfingers 7.12502
rthumb -3.9034 -29.1802
lclavicle -9.64106e-015 7.95139e-016
lhumerus -33.8966 -0.581131 80.3754
lradius 34.5653
lwrist 3.34543
lhand -19.9515 25.1506
lfingers 7.12502
lthumb 6.38666 55.0343
rfemur -30.9949 14.8824 13.4878
rtibia 40.8002
rfoot -20.4747 -13.5329
rtoes -0.449368
lfemur -30.7258 -2.01153 -20.4474
ltibia 38.7799
lfoot -15.6227 5.21403
ltoes -6.51803
88
root -0.176558 18.237 -14.5712 11.1982 -2.37146 2.23169
lowerback 20.5959 0.628283 -2.48751
upperback 3.39199 0.158238 -1.32785
thorax -7.83121 0.123152 -0.0622326
lowerneck -12.8659 -3.2915 -8.07018
upperneck -2.7184 -3.38582 8.31546
head 1.53832 -1.43111 3.65412
rclavicle -1.59028e-015 3.97569e-015
rhumerus -32.6148 3.15861 -80.2373
rradius 32.1209
rwrist 12.8223
rhand -30.5523 0.95376
rfingers 7.12502
rthumb -3.85079 -28.9912
lclavicle -1.59028e-015 3.97569e-015
lhumerus -33.8728 -0.533358 80.1744
lradius 34.3983
lwrist 3.12483
lhand -19.7175 25.2715
lfingers 7.12502
lthumb 6.61252 55.1483
rfemur -31.9239 14.5968 13.3539
rtibia 41.3673
rfoot -20.6059 -13.3179
rtoes -0.552449
lfemur -31.6232 -1.93569 -20.4341
ltibia 39.2945
lfoot -15.6867 5.06102
ltoes -6.71211
89
root -0.170063 18.2081 -14.6101 11.65 -2.25742 2.30136
lowerback 21.0323 0.600884 -2.52981
upperback 3.45256 0.100495 -1.3094
thorax -7.99731 0.0979492 -0.00540557
lowerneck -13.1031 -3.31372 -8.01973
upperneck -3.17773 -3.38404 8.2949
head 1.43611 -1.4275 3.64101
rclavicle 0 1.05356e-014
rhumerus -32.6641 3.15329 -80.0755
rradius 31.9262
rwrist 13.0682
rhand -30.6833 1.27949
rfingers 7.12502
rthumb -3.97729 -28.6631
lclavicle 0 1.05356e-014
lhumerus -33.8301 -0.514476 79.9887
lradius 34.1824
lwrist 2.77626
lhand -19.5729 25.34
lfingers 7.12502
lthumb 6.75215 55.2124
rfemur -32.9017 14.2425 13.1392
rtibia 41.9609
rfoot -20.7405 -13.1359
rtoes -0.631718
lfemur -32.579 -1.85008 -20.5185
ltibia 39.7824
lfoot -15.689 4.83077
ltoes -6.74858
90
root -0.164734 18.18 -14.6464 12.092 -2.11911 2.35311
lowerback 21.5313 0.562516 -2.53575
upperback 3.4503 0.0324573 -1.29281
thorax -8.26488 0.0682377 0.0313449
lowerneck -13.2157 -3.31078 -8.02819
upperneck -3.61613 -3.35113 8.34331
head 1.32135 -1.40873 3.66154
rclavicle 2.28602e-015 -1.59028e-015
rhumerus -32.844 3.05458 -79.9008
rradius 31.7504
rwrist 13.1325
rhand -30.7606 1.14595
rfingers 7.12502
rthumb -4.05198 -28.7953
lclavicle 2.28602e-015 -1.59028e-015
lhumerus -33.9179 -0.44537 79.76
lradius 33.8856
lwrist 2.44456
lhand -20.2891 24.3874
lfingers 7.12502
lthumb 6.06073 54.2807
rfemur -33.8405 13.8876 12.9643
rtibia 42.5651
rfoot -20.9102 -12.972
rtoes -0.552978
lfemur -33.5058 -1.76062 -20.575
ltibia 40.2455
lfoot -15.7046 4.51562
ltoes -6.2938
